<?xml version="1.0" standalone="no"?>
<svg t="1756474365165" class="icon" viewBox="0 0 1024 1024" version="1.1" xmlns="http://www.w3.org/2000/svg" p-id="1080"
    xmlns:xlink="http://www.w3.org/1999/xlink" width="128" height="128">
    <path
        d="M637.607 817.6h-147.58c-125.97-0.83-227.5-103.49-226.92-229.45V123.99h-199.1V64.25h457.08v59.74h-199.1v92.33h0.35c-0.25 53.49 42.87 97.07 96.36 97.41h225.63c21.72-66.59 83.66-111.77 153.7-112.14 89.88 0.66 162.3 73.88 161.97 163.76 0.33 89.88-72.09 163.1-161.97 163.76-86.67-0.56-157.75-68.85-161.77-155.45h-217.32c-35.21 0.02-69.36-12.03-96.76-34.15v248.63c-0.27 92.91 74.63 168.57 167.54 169.23h150.87c17.33-73.01 82.35-124.7 157.39-125.14 89.88 0.66 162.3 73.88 161.97 163.76 0.36 89.9-72.08 163.13-161.97 163.76-81.5-0.56-150.03-61.29-160.37-142.15z m57.99-21.41c-0.25 56.94 45.63 103.37 102.58 103.78 56.96-0.41 102.85-46.81 102.64-103.78 0.19-56.94-45.69-103.32-102.64-103.73-56.96 0.39-102.87 46.79-102.63 103.75l0.05-0.02z m0-430.96c-0.22 56.94 45.65 103.32 102.58 103.73 56.94-0.41 102.83-46.79 102.64-103.73 0.22-56.97-45.68-103.37-102.64-103.78-56.96 0.39-102.87 46.79-102.63 103.75l0.05 0.03z"
        fill="#363535" p-id="1081">
    </path>
</svg>